<?xml version="1.0" standalone="no"?>
<!DOCTYPE svg PUBLIC "-//W3C//DTD SVG 20010904//EN"
 "http://www.w3.org/TR/2001/REC-SVG-20010904/DTD/svg10.dtd">
<svg version="1.0" xmlns="http://www.w3.org/2000/svg"
 width="500.000000pt" height="500.000000pt" viewBox="0 0 500.000000 500.000000"
 preserveAspectRatio="xMidYMid meet">
<metadata>
Created by potrace 1.16, written by Peter Selinger 2001-2019
</metadata>
<g transform="translate(0.000000,500.000000) scale(0.100000,-0.100000)"
fill="#000000" stroke="none">
<path d="M1351 4209 c-122 -21 -252 -92 -356 -195 -122 -121 -186 -252 -205
-416 -8 -62 -10 -448 -8 -1163 3 -989 5 -1075 21 -1130 72 -244 278 -446 511
-500 58 -14 207 -15 1209 -13 l1142 3 65 22 c219 75 407 276 466 496 11 43 14
256 14 1186 0 1265 4 1187 -71 1332 -89 172 -244 304 -429 365 -52 18 -118 19
-1180 20 -635 1 -1148 -2 -1179 -7z m2115 -468 c44 -20 74 -56 92 -110 8 -23
12 -135 12 -340 0 -275 -2 -310 -19 -346 -19 -43 -68 -90 -110 -107 -17 -7
-350 -10 -945 -9 l-920 0 -44 28 c-57 35 -82 69 -93 124 -4 24 -8 175 -8 334
-1 262 1 294 18 331 19 42 65 85 111 103 16 6 365 10 945 10 876 1 922 0 961
-18z m-1658 -1067 c97 -68 45 -224 -75 -224 -38 0 -51 6 -78 33 -43 43 -52 79
-34 131 10 30 24 46 49 58 43 22 108 23 138 2z m522 -11 c40 -37 51 -79 34
-129 -19 -57 -55 -84 -112 -84 -75 0 -122 48 -122 125 0 47 14 71 53 95 48 30
110 26 147 -7z m528 -7 c23 -22 27 -35 27 -81 0 -46 -4 -58 -29 -84 -41 -43
-85 -56 -128 -38 -98 42 -118 166 -34 219 46 28 128 21 164 -16z m482 19 c60
-31 75 -102 37 -170 -47 -83 -157 -84 -204 0 -27 47 -28 73 -8 121 24 57 112
82 175 49z m-1508 -371 c57 -37 81 -92 76 -175 -3 -56 -9 -76 -33 -110 -62
-87 -184 -111 -267 -53 -143 100 -104 323 64 365 50 12 119 0 160 -27z m493
17 c79 -37 115 -95 115 -187 0 -146 -138 -243 -268 -189 -78 33 -122 102 -122
195 0 90 47 153 136 185 53 19 91 18 139 -4z m533 -7 c198 -99 97 -412 -123
-380 -89 14 -152 83 -162 179 -5 45 -1 64 19 109 50 108 159 146 266 92z m542
-8 c106 -70 119 -220 26 -312 -126 -127 -329 -41 -330 141 -1 94 52 167 140
195 46 15 123 3 164 -24z m-1057 -497 c55 -28 57 -37 57 -278 l0 -223 -34 -34
c-32 -32 -38 -34 -101 -34 -67 0 -100 11 -122 39 -9 11 -12 80 -13 242 0 216
1 228 21 253 12 15 31 32 43 36 31 13 124 12 149 -1z m470 0 c55 -28 57 -36
57 -281 0 -225 0 -227 -24 -255 -22 -25 -31 -28 -104 -31 -77 -4 -81 -3 -113
26 l-34 30 0 224 c0 245 3 259 58 283 39 17 130 19 160 4z m-897 -41 l34 -38
0 -201 0 -201 -39 -39 -39 -39 -158 0 c-186 0 -214 9 -251 80 -21 40 -23 56
-23 202 0 169 5 191 52 235 36 34 88 42 246 40 l144 -2 34 -37z m1561 25 c19
-9 47 -34 61 -56 26 -40 27 -44 27 -201 0 -157 -1 -162 -27 -208 -44 -74 -84
-88 -254 -88 -120 0 -143 3 -171 20 -60 36 -62 46 -64 261 -2 289 -2 289 234
289 127 0 166 -3 194 -17z"/>
<path d="M1723 3519 c-17 -5 -41 -21 -52 -35 -19 -25 -21 -40 -21 -193 1 -173
4 -186 47 -209 16 -9 230 -12 812 -12 l789 0 31 26 31 26 0 170 0 170 -30 28
c-16 15 -46 30 -67 34 -61 10 -1504 5 -1540 -5z"/>
<path d="M3242 1619 c-58 -38 -77 -101 -47 -159 33 -64 105 -93 168 -67 43 18
67 53 74 105 14 105 -105 178 -195 121z"/>
</g>
</svg>
